<?xml version="1.0" encoding="UTF-8"?>
<svg width="1420px" height="500px" viewBox="0 0 1420 500" version="1.1" xmlns="http://www.w3.org/2000/svg" xmlns:xlink="http://www.w3.org/1999/xlink">
    <!-- Generator: Sketch 42 (36781) - http://www.bohemiancoding.com/sketch -->
    <title>White</title>
    <desc>Created with Sketch.</desc>
    <defs></defs>
    <g id="Page-2" stroke="none" stroke-width="1" fill="none" fill-rule="evenodd">
        <g id="White" fill="#FFFFFF">
            <g id="Group-6">
                <path d="M0,400 L100,400 L100,500 L0,500 L0,400 Z M100,0 L500,0 L500,400 L100,400 L100,0 Z M100,300 L100,400 L200,400 L200,300 L100,300 Z" id="Combined-Shape"></path>
            </g>
            <path d="M796.704,400.392 L784.032,346.248 L712.992,346.248 L700.704,400.392 L660,400.392 L727.584,131.592 L769.44,131.592 L837.024,400.392 L796.704,400.392 Z M721.44,310.152 L775.968,310.152 L759.072,237.96 C755.232,220.296 751.008,194.568 749.088,180.36 L747.936,180.36 C746.016,194.568 742.176,220.296 737.952,237.96 L721.44,310.152 Z M927.264,405.384 C977.568,405.384 1005.6,371.208 1005.6,331.272 C1005.6,247.944 892.704,247.944 892.704,195.336 C892.704,176.136 905.376,163.848 927.264,163.848 C948,163.848 961.44,176.136 962.208,201.864 L1001.76,201.864 C1000.608,156.168 972.96,126.6 926.88,126.6 C881.568,126.6 853.152,155.784 853.152,194.568 C853.152,274.44 965.664,277.512 965.664,330.888 C965.664,352.392 952.992,367.752 927.264,367.752 C903.456,367.752 888.48,354.312 888.096,326.664 L848.544,326.664 C848.928,375.816 879.648,405.384 927.264,405.384 Z M1104.288,405 C1060.512,405 1033.248,377.736 1033.248,328.2 L1033.248,269.832 C1033.248,220.296 1060.512,193.032 1104.288,193.032 C1148.448,193.032 1175.712,220.296 1175.712,269.832 L1175.712,328.2 C1175.712,377.736 1148.448,405 1104.288,405 Z M1282.232,198.024 L1262.112,198.024 L1262.112,186.888 C1262.112,161.544 1272.096,150.792 1293.216,150.792 L1305.12,150.792 L1305.12,117 L1293.216,117 C1246.368,117 1225.248,145.032 1225.248,186.888 L1225.248,198.024 L1195.68,198.024 L1195.68,231.816 L1225.248,231.816 L1225.248,400.392 L1262.112,400.392 L1262.112,231.816 L1282.232,231.816 L1341.6,231.816 L1341.6,335.112 C1341.6,376.968 1365.408,402.696 1405.728,402.696 L1419.936,402.696 L1419.936,367.752 L1407.648,367.752 C1387.68,367.752 1378.464,357.384 1378.464,335.496 L1378.464,231.816 L1416.096,231.816 L1416.096,198.024 L1378.464,198.024 L1378.464,150.024 L1341.6,150.024 L1341.6,198.024 L1282.232,198.024 Z M1104.288,368.904 C1083.552,368.904 1070.88,356.616 1070.88,328.2 L1070.88,269.832 C1070.88,241.416 1083.552,229.128 1104.288,229.128 C1125.408,229.128 1138.08,241.416 1138.08,269.832 L1138.08,328.2 C1138.08,356.616 1125.408,368.904 1104.288,368.904 Z" id="ASoft"></path>
        </g>
    </g>
</svg>